<?xml version="1.0" encoding="utf-8"?>
<!-- Generator: Adobe Illustrator 27.1.1, SVG Export Plug-In . SVG Version: 6.00 Build 0)  -->
<svg version="1.1" id="Layer_1" xmlns="http://www.w3.org/2000/svg" xmlns:xlink="http://www.w3.org/1999/xlink" x="0px" y="0px"
	 viewBox="0 0 29.9 31.3" style="enable-background:new 0 0 29.9 31.3;" xml:space="preserve">
<style type="text/css">
	.st0{fill:#5AC1E6;}
</style>
<g>
	<path class="st0" d="M12,20.7c4.5,1.6,8.9,3.1,13.3,4.5c0.3,0.1,1.2-0.5,1.4-0.9c0.4-1.5,0.5-3,0.7-4.5c0.5-3.3,1-6.6,1.5-9.9
		c0.4-2.8,0.8-5.5,1.1-8.3C30,0,29.4-0.4,28,0.4c-2.1,1.1-4.2,2.2-6.4,3.4C15.1,7.1,8.6,10.5,2.1,13.9c-0.6,0.3-1.1,0.6-1.6,1
		c-0.8,0.6-0.6,1.7,0.3,2c2.4,0.9,4.8,1.7,7.2,2.5c0.4,0.1,1-0.1,1.3-0.4c3.3-2.9,6.6-5.8,10-8.7c0.8-0.7,1.6-1.3,2.5-1.9
		c0.1,0.1,0.1,0.1,0.2,0.2C18.7,12.5,15.4,16.5,12,20.7z"/>
	<path class="st0" d="M12.7,19.8c3.5-4.3,9.1-11.5,9.1-11.5C20.9,8.9,12.6,16,9.3,18.9C9,19.2,8.4,19.4,8,19.3
		c-2.4-0.8-4.8-1.6-7.2-2.4c-0.8-0.3-1.1-1.4-0.4-2C0.9,14.5,25.9,1.4,28,0.4c1.1-0.6,2,0,1.9,1.3c-0.5,4.4-3.2,22.6-3.2,22.6
		s-0.4,1.5-1.4,0.9c-4.1-1.3-8.1-2.7-12.3-4.2C12.5,20.8,12.3,20.2,12.7,19.8z"/>
	<path class="st0" d="M10.7,21.9l5.7,1.9l-3.8,4.8c-0.3,0.4-0.9,0.2-1-0.3L10.7,21.9z"/>
	<path class="st0" d="M13.2,31.3"/>
</g>
</svg>
