<?xml version="1.0" encoding="utf-8"?>
<!-- Generator: Adobe Illustrator 27.1.1, SVG Export Plug-In . SVG Version: 6.00 Build 0)  -->
<svg version="1.1" id="Layer_1" xmlns="http://www.w3.org/2000/svg" xmlns:xlink="http://www.w3.org/1999/xlink" x="0px" y="0px"
	 viewBox="0 0 30 30.4" style="enable-background:new 0 0 30 30.4;" xml:space="preserve">
<style type="text/css">
	.st0{fill:#5AC1E6;}
</style>
<g>
	<path class="st0" d="M15.8,23.6c-3.1-1.8-5.8-4-7.8-7c-1.6-2.3-1.6-2.4,1-3.6c1.1-0.5,1.4-1.1,0.9-2.3c-1-2.3-1.7-4.7-1.7-7.4
		c0-0.4-0.8-1.3-1.3-1.3C5.1,1.9,3.3,2,1.5,2.1C1,2.1,0.1,2.5,0.2,3.6c-0.2,4.5,0.9,8.3,3,12.2c2.4,4.5,5.8,8.2,10.2,10.7
		c4.1,2.4,8.3,3.4,13,3.8c1.1,0.1,1.7-0.5,1.6-1.6c0-1.8,0-3.6,0-5.4c0-0.9-0.3-1.1-1.2-1.3c-2.5-0.5-4.9-1.1-7.4-1.7
		c-1.1-0.3-2-0.3-2.5,1C16.7,22.1,16.3,22.8,15.8,23.6z"/>
	<path class="st0" d="M16.9,0.2c-0.2,0-0.3,0-0.5,0c-0.8,0-1.4,0.3-1.4,1.2c0,0.5,0.3,0.8,0.9,1c0.5,0.1,0.6,0.1,1.4,0.2
		c0.4,0.1,0.8,0.1,1.2,0.2c4.9,1.2,8.4,5,9.1,10c0.1,1-0.2,2.6,1.2,2.6c0.7-0.1,1-0.4,1.1-0.8c0.1-0.5-0.1-2.5-0.1-2.9
		C29,5.6,22.8,0.3,16.9,0.2z"/>
	<path class="st0" d="M25.9,12.2c-0.8-4.9-4.7-7.8-9.5-8.2c-0.2,0-1.2,0-1.4,1.1c-0.1,1.1,0.9,1.3,1.3,1.4c4.8,0.3,7.2,3.6,7.7,7.8
		c0.1,0.5,0.4,1.1,1.2,1c1-0.1,1-1.1,1-1.4C26.1,13.6,25.9,12.5,25.9,12.2z"/>
	<path class="st0" d="M16,8c0,0-0.9,0-1,1c-0.1,0.9,0.7,1.2,0.9,1.2c2.2,0.5,3.9,1.5,4,4.1c0,0.2,0.2,1.2,1.2,1.1
		c1.3-0.1,1.2-1.7,1.1-1.8C22.1,10.9,19.3,8,16,8z"/>
</g>
</svg>
