<?xml version="1.0" encoding="utf-8"?>
<!-- Generator: Adobe Illustrator 27.1.1, SVG Export Plug-In . SVG Version: 6.00 Build 0)  -->
<svg version="1.1" id="Layer_1" xmlns="http://www.w3.org/2000/svg" xmlns:xlink="http://www.w3.org/1999/xlink" x="0px" y="0px"
	 viewBox="0 0 30.8 23.3" style="enable-background:new 0 0 30.8 23.3;" xml:space="preserve">
<style type="text/css">
	.st0{fill:#5AC1E6;}
</style>
<path class="st0" d="M27.7,0C19.5,0,11.3,0,3.1,0C1.3,0,0,1.2,0,2.8c0,5.9,0,11.8,0,17.8c0,1.9,1,2.8,2.9,2.8c4.2,0,8.4,0,12.6,0
	c4.2,0,8.4,0,12.6,0c1.9,0,2.8-0.9,2.8-2.8c0-5.8,0-11.5,0-17.3C30.8,1.2,29.7,0,27.7,0z M10.7,5.1c2.5,0,4,1.8,4,4.2
	c0.1,2-1.3,4-4,4.1c-2.5-0.1-4-1.8-4.1-4.1C6.6,7.2,7.8,5.2,10.7,5.1z M15.8,18.3c-1.7,0-3.5,0-5.2,0c-1.5,0-3.1,0-4.6,0
	c-1.8,0-2.4-1.1-1.6-2.8c0.7-1.5,2.4-2,4-1.7c1.5,0.3,3.4,0.4,4.8,0c2.2-0.5,3.9,0.7,4.1,3.1C17.2,17.9,16.8,18.2,15.8,18.3z
	 M26,15.4h-5.6c-0.6,0-1.1-0.5-1.1-1.1c0-0.6,0.5-1.1,1.1-1.1H26c0.6,0,1.1,0.5,1.1,1.1S26.6,15.4,26,15.4z M26,11.6h-5.6
	c-0.6,0-1.1-0.5-1.1-1.1c0-0.6,0.5-1.1,1.1-1.1H26c0.6,0,1.1,0.5,1.1,1.1S26.6,11.6,26,11.6z M26,7.8h-5.6c-0.6,0-1.1-0.5-1.1-1.1
	s0.5-1.1,1.1-1.1H26c0.6,0,1.1,0.5,1.1,1.1C27,7.3,26.6,7.8,26,7.8z"/>
</svg>
