<?xml version="1.0" encoding="utf-8"?>
<!-- Generator: Adobe Illustrator 27.1.1, SVG Export Plug-In . SVG Version: 6.00 Build 0)  -->
<svg version="1.1" id="Layer_1" xmlns="http://www.w3.org/2000/svg" xmlns:xlink="http://www.w3.org/1999/xlink" x="0px" y="0px"
	 viewBox="0 0 22.1 29.6" style="enable-background:new 0 0 22.1 29.6;" xml:space="preserve">
<style type="text/css">
	.st0{fill:#5AC1E6;}
</style>
<g>
	<path class="st0" d="M11.9,13.8c-0.1-1.5-0.4-2.7,1.3-3.6c1.4-0.7,2.3-2.3,1.7-3.9c-0.7-1.9-1.8-3.8-2.8-5.6c-0.6-1-1.5-1.1-2.2,0
		C9,2.4,8,3.9,7.3,5.5c-0.8,1.7-0.2,4.1,1.4,4.8c2,0.8,1.2,2.2,1.2,3.6c-1.9,0-3.7,0-5.5,0c-4.3,0-4.1,0-4.3,4.3
		c-0.1,1.7,0.8,2.2,2,2.3c1.6,0.1,3.3,0.1,4.9-0.2c2.3-0.4,4.6-0.9,6.9-0.4c1.7,0.4,3.5,0.6,5.3,0.6c2.6,0,2.9-0.4,2.9-3
		c0-0.4,0-0.9,0-1.3c0.2-1.9-0.4-2.4-2.5-2.4C17,13.8,14.5,13.8,11.9,13.8z"/>
	<path class="st0" d="M21.9,22.5c-0.4,0-0.7-0.1-1,0c-2.1,0.7-4.2,0.6-6.4,0.1c-1.9-0.5-4.1-0.6-6.1-0.2c-2.6,0.5-5,1.1-7.5,0.1
		c-0.2-0.1-0.5,0-0.7,0.1c0,2.4,0,4.8,0,7.1c7.3,0,14.5,0,21.8,0C21.9,27.2,21.9,24.8,21.9,22.5z"/>
	<path class="st0" d="M11.9,13.8c2.7,0,5.2,0,7.6,0c2.1,0,2.7,0.5,2.5,2.4c-0.1,0.4,0,0.9,0,1.3c0,2.5-0.4,3-2.9,3
		c-1.8,0-3.6-0.2-5.3-0.6c-2.4-0.6-4.6,0-6.9,0.4c-1.6,0.3-3.3,0.3-4.9,0.2c-1.2-0.1-2.1-0.6-2-2.3c0.2-4.3,0.1-4.3,4.3-4.3
		c1.8,0,3.6,0,5.5,0c0-1.4,0.7-2.7-1.2-3.6C7.1,9.6,6.5,7.1,7.2,5.5C8,3.9,9,2.4,9.9,0.8c0.7-1.2,1.6-1.1,2.2,0
		c1.1,1.8,2.1,3.6,2.8,5.6c0.6,1.6-0.3,3.2-1.7,3.9C11.5,11.1,11.8,12.3,11.9,13.8z"/>
	<path class="st0" d="M21.9,22.5c0,2.4,0,4.7,0,7.1c-7.2,0-14.4,0-21.8,0c0-2.4,0-4.7,0-7.1c0.3,0,0.5-0.1,0.7-0.1
		c2.5,1,4.9,0.4,7.5-0.1c1.9-0.4,4.1-0.2,6.1,0.2c2.2,0.5,4.3,0.6,6.4-0.1C21.2,22.4,21.5,22.5,21.9,22.5z"/>
</g>
</svg>
