<?xml version="1.0" encoding="utf-8"?>
<!-- Generator: Adobe Illustrator 27.1.1, SVG Export Plug-In . SVG Version: 6.00 Build 0)  -->
<svg version="1.1" id="Layer_1" xmlns="http://www.w3.org/2000/svg" xmlns:xlink="http://www.w3.org/1999/xlink" x="0px" y="0px"
	 viewBox="0 0 29.1 29.3" style="enable-background:new 0 0 29.1 29.3;" xml:space="preserve">
<style type="text/css">
	.st0{fill:#5AC1E6;}
</style>
<g>
	<path class="st0" d="M18.1,12.3c-0.1,0-0.1,0-0.2,0c-0.6,3.3-3.5,5.8-6.9,5.8c-3.9,0-7-3.1-7-7c0-3.9,3.1-7,7-7
		c2.1,0,4,0.9,5.3,2.4c0.6-0.1,1.2-0.2,1.8-0.2c1,0,2,0.1,3,0.4C19.4,2.8,15.5,0,11,0C4.9,0,0,4.9,0,11c0,6.1,4.9,11,11,11
		c5.2,0,9.6-3.7,10.7-8.6C20.7,12.7,19.4,12.3,18.1,12.3z"/>
	<path class="st0" d="M18.1,7.3c-5.2,0-9.5,3.6-10.7,8.4c0,0,0.1,0.4,2.1,1c1,0.3,1.8,0,1.8,0c0.7-3.1,3.5-5.4,6.8-5.4
		c3.9,0,7,3.1,7,7s-3.1,7-7,7c-1.9,0-3.6-0.8-4.9-2c-0.7,0.1-1.5,0.2-2.2,0.2c-0.8,0-1.8-0.2-2.8-0.4c1.8,3.6,5.6,6.2,9.9,6.2
		c6.1,0,11-4.9,11-11S24.2,7.3,18.1,7.3z"/>
</g>
</svg>
