<?xml version="1.0" encoding="UTF-8"?>
<svg id="uuid-5f84a456-98aa-447d-b604-130543aa93b3" data-name="Layer 1" xmlns="http://www.w3.org/2000/svg" viewBox="0 0 400 300" width="406" height="306">
  <circle cx="31.4" cy="20.17" r="11.15" style="fill: none; stroke: #68e1fd; stroke-miterlimit: 10;"/>
  <circle cx="31.4" cy="20.17" r="14.41" style="fill: none; stroke: #68e1fd; stroke-miterlimit: 10;"/>
  <circle cx="31.4" cy="20.17" r="18.67" style="fill: none; stroke: #68e1fd; stroke-miterlimit: 10; stroke-width: 3px;"/>
  <path d="m40.65,31.32s6.42,8.94,7.73,16.46l7.78-14.62,2.79,1.74s-6.94,22.88-12.83,23.72-10.62-15.41-10.62-15.41c0,0,5.15-11.89,5.15-11.89Z" style="fill: #68e1fd;"/>
  <path d="m40.65,31.32s6.42,8.94,7.73,16.46l7.78-14.62,2.79,1.74s-6.94,22.88-12.83,23.72-10.62-15.41-10.62-15.41c0,0,5.15-11.89,5.15-11.89Z" style="fill: #fff; isolation: isolate; opacity: .46;"/>
  <path d="m56.75,33.53s1.84-4,3.26-4.15-1.05,5.57-1.05,5.57c0,0-2.21-1.42-2.21-1.42Z" style="fill: #f4a28c;"/>
  <ellipse cx="36.45" cy="107.74" rx="35.71" ry="3.79" style="fill: #e6e6e6; isolation: isolate; opacity: .45;"/>
  <ellipse cx="74" cy="89.59" rx="35.71" ry="3.79" style="fill: #e6e6e6; isolation: isolate; opacity: .45;"/>
  <path d="m38.97,103.95s.63,1.63,2.16,1.74,1.95,1.58.58,1.95c-1.37.42-4.84-1.26-4.84-1.26l.11-2.73,2,.32v-.02Z" style="fill: #68e1fd;"/>
  <path d="m19.41,103.63s.42,1.95,1.89,2.05c1.53.11,1.95,1.58.58,1.95-1.37.42-4.84-1.26-4.84-1.26l.11-2.73h2.26Z" style="fill: #68e1fd;"/>
  <path d="m32.5,27.74l-4.73.16s-14.57,1-16.78,9.57c-2.21,8.57,7.94,28.82,7.94,28.82h19.14s16.51-37.08-5.57-38.55Z" style="fill: #68e1fd;"/>
  <path d="m18.93,66.29s2.58,18.67-2.68,37.34h3.89s6.94-10.99,8.68-33.71c0,0-9.89-3.63-9.89-3.63Z" style="fill: #24285b;"/>
  <g>
    <path d="m32.66,17.54c.32,1.42.42,2.89.32,4.31-.11.74-.74,1.21-1.47,1.16h0c-1.16-.11-2.1-.84-2.52-1.89l-1.05-2.16c-.32-.95-.05-2,.74-2.63,1.31-1.21,3.73-.37,4,1.21h-.02Z" style="fill: #f4a28c;"/>
    <polygon points="28.14 19.33 27.77 27.9 32.5 27.74 30.87 21.59 28.14 19.33" style="fill: #f4a28c;"/>
    <path d="m32.03,17.75c-.79.11-1.63.16-2.42.11.58.68.68,1.58.26,2.37-.37.79-1.21,1.16-2.05.95l-.37-3.31c-.16-.95.26-1.95,1.05-2.52.32-.26.68-.47,1.05-.68.89-.53,2.37,0,3.21-.79.26-.26.63-.26.89,0,.11.11.16.21.16.32.26,1,.26,2.63-1.05,3.31-.16.16-.42.21-.74.26v-.02Z" style="fill: #9e9fa8;"/>
    <path d="m30.19,20.12s-.16-1-.89-.84c-.74.16-.53,1.58.47,1.58l.42-.74Z" style="fill: #f4a28c;"/>
    <path d="m32.92,19.17l.84.89c.16.16.16.42-.05.58-.05.05-.11.05-.16.11l-.95.32.32-1.89h0Z" style="fill: #f4a28c;"/>
    <path d="m31.29,22.9c-.58-.11-1.16-.32-1.58-.74,0,0,.26,1.53,2.16,2.89l-.58-2.16h0Z" style="fill: #ce8172; isolation: isolate; opacity: .31;"/>
  </g>
  <path d="m38.02,66.29s4.68,26.61,1.74,37.34h-3.73s-1.31-24.72-7.63-30.45l-9.47-6.89s19.09,0,19.09,0Z" style="fill: #24285b;"/>
  <path d="m19.51,33.69s7.78,2.95,3.52,14.88c-4.26,11.94-2.68,13.36,1.79,12.57,2.68-.47,5.1-5,5.94-7.26.74-1.95,1.16-4.68,3.47-1.1.84,1.37.84,3.21.68,4.73-.21,3.16-1.31,7.05-4.15,8.78h-11.83l-6.21-6.42v-16.09l6.78-10.1h.01Z" style="isolation: isolate; opacity: .08;"/>
  <path d="m18.67,32.95c-1.58-1.21-3.84-1.05-5.26.37-2.63,2.68-6.26,8.73-4.73,20.77,2.37,18.09,14.83,17.83,25.14-.58l-3.16-2s-9.41,13.04-13.57,6.57c-3.63-5.84,8.89-19.46,1.58-25.14h0Z" style="fill: #68e1fd;"/>
  <path d="m18.67,32.95c-1.58-1.21-3.84-1.05-5.26.37-2.63,2.68-6.26,8.73-4.73,20.77,2.37,18.09,14.83,17.83,25.14-.58l-3.16-2s-9.41,13.04-13.57,6.57c-3.63-5.84,8.89-19.46,1.58-25.14h0Z" style="fill: #fff; isolation: isolate; opacity: .46;"/>
  <path d="m31.19,51.83s1.21-3.1,2.68-3.26c1.47-.16-.63,4.52-.63,4.52,0,0-2.05-1.26-2.05-1.26Z" style="fill: #f4a28c;"/>
  <path d="m5.15,102.21s-4.21-1.16-5.15-5.1c0,0,6.52-1.31,6.73,5.42l-1.58-.32Z" style="fill: #68e1fd; isolation: isolate; opacity: .58;"/>
  <path d="m5.63,101.79s-2.95-4.68-.37-8.99c0,0,4.94,3.16,2.73,9.05l-2.37-.05h0Z" style="fill: #68e1fd; isolation: isolate; opacity: .73;"/>
  <path d="m6.42,101.79s1.58-4.89,6.26-5.84c0,0,.89,3.21-3.05,5.89,0,0-3.21-.05-3.21-.05Z" style="fill: #68e1fd;"/>
  <polygon points="3.37 101.69 4.21 107.53 9.57 107.58 10.36 101.74 3.37 101.69" style="fill: #24285b;"/>
  <g>
    <path d="m92.88,71.5c-.32,4.73-.63,9.47-.89,14.2-.63-.05-1.31-.05-1.95-.11.37-4.68.68-9.31,1.05-13.99.58,0,1.21-.05,1.79-.11h0Z" style="fill: #e6e6e6;"/>
    <path d="m85.46,71.5c-.32,4.73-.63,9.47-.89,14.2-.63-.05-1.31-.05-1.95-.11.37-4.68.68-9.31,1.05-13.99.58,0,1.16-.05,1.79-.11h0Z" style="fill: #e6e6e6;"/>
    <path d="m78.05,71.5c-.32,4.73-.63,9.47-.89,14.2-.63-.05-1.31-.05-1.95-.11.37-4.68.68-9.31,1.05-13.99.58,0,1.16-.05,1.79-.11h0Z" style="fill: #e6e6e6;"/>
    <path d="m70.58,71.5c-.32,4.73-.63,9.47-.89,14.2-.63-.05-1.31-.05-1.95-.11.37-4.68.68-9.31,1.05-13.99.58,0,1.21-.05,1.79-.11h0Z" style="fill: #e6e6e6;"/>
    <path d="m101.19,71.61c-.42,4.73-.84,9.47-1.21,14.2-.63-.05-1.31-.05-1.95-.11.26-4.58.53-9.15.84-13.73.74-.16,1.53-.26,2.31-.37h.01Z" style="fill: #e6e6e6; isolation: isolate; opacity: .45;"/>
    <path d="m67.74,76.65l33.45-5.1s4.21-8.41,6.31-13.2c-.68-.74-2.26-2.31-4.84-3.21-2.73-.95-6.05-.32-6.05-.32l-28.87,21.83Z" style="fill: #e6e6e6; isolation: isolate; opacity: .45;"/>
    <g>
      <path d="m94.98,81.18l1.68,1.37s-.84,2.95-1.79,3.52c-.95.58-1.58-.42-.84-1.37s.05-2.16.05-2.16l.89-1.37h0Z" style="fill: #68e1fd;"/>
      <path d="m89.56,85.07l1.68,1.37s-.84,2.95-1.79,3.52-1.58-.42-.84-1.37.05-2.16.05-2.16l.89-1.37h0Z" style="fill: #68e1fd;"/>
      <path d="m80.73,85.44l1.68,1.37s-.84,2.95-1.79,3.52c-.95.58-1.58-.42-.84-1.37s.05-2.16.05-2.16l.89-1.37h0Z" style="fill: #68e1fd;"/>
      <path d="m71.31,82.02l1.42,1.63s-1.26,2.79-2.31,3.21c-1,.42-1.47-.68-.63-1.47s.42-2.16.42-2.16c0,0,1.1-1.21,1.1-1.21Z" style="fill: #68e1fd;"/>
      <path d="m75.84,60.61c-7.68.16-13.67,2.58-14.73,6.42-.53,1.89.32,3.73,1.58,6.57,2.26,4.94,5.26,8.31,7.42,10.41.53-.68,1.05-1.31,1.58-2-1.58-3.94-3.21-7.89-4.79-11.78,3.16-.53,6.26-1.05,9.41-1.63,2.47-3.1,3.52-6-.47-7.99Z" style="fill: #24285b;"/>
      <path d="m79.94,63.61c-7.47,1.95-12.73,5.73-12.83,9.68-.05,1.95,1.16,3.58,3.1,6.05,3.31,4.26,7.05,6.89,9.62,8.36.37-.79.74-1.53,1.1-2.31-2.47-3.47-4.94-6.89-7.42-10.36,2.95-1.26,5.84-2.52,8.78-3.79,2.52-3.79,6.68-8.2-2.37-7.63h.02Z" style="fill: #24285b;"/>
      <path d="m88.78,63.3c-7.47,1.95-12.73,5.73-12.83,9.68-.05,1.95,1.16,3.58,3.1,6.05,3.31,4.26,7.05,6.89,9.62,8.36.37-.79.74-1.53,1.1-2.31-2.47-3.47-4.94-6.89-7.42-10.36,2.95-1.26,5.84-2.52,8.78-3.79-.84-2.52-1.63-5.05-2.37-7.63h.02Z" style="fill: #24285b;"/>
      <path d="m94.88,63.98c-7.31,2.37-12.15,6.15-11.83,9.47.11,1.47,1.16,2.68,2.63,4,2.95,2.73,6.42,4.31,8.84,5.15.42-.58.84-1.16,1.21-1.68-2.21-2.21-4.37-4.47-6.57-6.68,2.95-1.1,5.94-2.21,8.89-3.26,1.42-.89,2.21-2.37,2.05-3.79-.21-2-2.52-3.68-5.21-3.21h0Z" style="fill: #24285b;"/>
      <path d="m83.52,60.61l6.63,1.31s4.89-6.31,4.73-9.41-5.15-4.47-5.15-4.47l-1.63-.37c-7.68-1.05-4.58,12.94-4.58,12.94Z" style="fill: #68e1fd;"/>
      <path d="m77.84,61.24l6.63,1.31s4.89-6.31,4.73-9.41-5.15-4.47-5.15-4.47l-1.63-.37c-7.68-1.05-4.58,12.94-4.58,12.94Z" style="fill: #68e1fd;"/>
      <path d="m83.73,67.13c.58-.47,2.05-1.53,4.21-1.63,1.31-.11,2.42.21,3.05.47.37-.26,1-.74,1.53-1.58.37-.68.68-1.58.58-2.73-.16-3.1-5.15-4.47-5.15-4.47l-1.63-.37c-7.68-1.1-2.58,10.31-2.58,10.31h-.01Z" style="fill: #68e1fd;"/>
      <path d="m88.88,67.45l8.26-2.89s2.89-3.26,2.68-6.36c-.16-3.1-5.15-4.47-5.15-4.47l-1.63-.37c-7.63-1.05-4.15,14.09-4.15,14.09h-.01Z" style="fill: #68e1fd;"/>
      <path d="m72.31,60.82l6.15,2.63s4.89-6.31,4.73-9.41-5.15-4.47-5.15-4.47l-1.63-.37c-7.68-1.05-4.1,11.62-4.1,11.62Z" style="fill: #68e1fd;"/>
      <path d="m74.63,66.24c.95-.26,2.63-.68,4.68-.42,1.95.21,3.47.89,4.31,1.37,2.95-.95,4.21-3.84,4.05-6.68-.16-3.1-5.15-4.47-5.15-4.47l-1.63-.37c-7.68-1.05-6.26,10.57-6.26,10.57Z" style="fill: #68e1fd;"/>
      <g>
        <g>
          <path d="m87.93,42.52c.53.74.47,1.68,0,2.37l-1.42,1.58c-.58.79-1.58,1.21-2.58,1h0c-.63-.11-1.05-.68-1-1.31.26-1.26.68-2.47,1.31-3.58.58-1.21,2.84-1.37,3.68-.05h.01Z" style="fill: #f4a28c;"/>
          <polygon points="84.83 46.47 81.94 51.25 85.88 52.51 87.67 45.2 84.83 46.47" style="fill: #f4a28c;"/>
          <path d="m84.09,42.52c-.95-.89-.53-2.26-.05-3.05.05-.11.11-.16.21-.21.26-.16.63-.05.74.21.53.84,1.89.79,2.52,1.42.26.26.53.53.74.84.53.68.63,1.58.32,2.37l-1.1,2.73c-.74,0-1.37-.58-1.53-1.31-.16-.74.16-1.53.79-1.95-.68-.16-1.37-.37-2-.68-.21-.05-.47-.21-.63-.37h0Z" style="fill: #24285b;"/>
          <path d="m85.88,46.1c.84.26,1.37-.95.79-1.26-.58-.32-.95.47-.95.47,0,0,.16.79.16.79Z" style="fill: #f4a28c;"/>
          <path d="m83.46,45.62l-.74-.47c-.05-.05-.11-.05-.11-.11-.11-.16-.05-.42.11-.53l.95-.58-.21,1.68h0Z" style="fill: #f4a28c;"/>
          <path d="m83.15,49.15c1.89-.68,2.47-1.95,2.47-1.95-.47.21-1,.32-1.53.21l-.95,1.74h0Z" style="fill: #ce8172; isolation: isolate; opacity: .31;"/>
        </g>
        <g>
          <path d="m94.3,41.31c.53.74.47,1.68,0,2.37l-1.42,1.58c-.58.79-1.58,1.21-2.58,1h0c-.63-.11-1.05-.68-1-1.31.26-1.26.68-2.47,1.31-3.58.58-1.26,2.84-1.42,3.68-.05h.01Z" style="fill: #f4a28c;"/>
          <polygon points="91.19 45.2 88.3 50.04 92.25 51.3 94.03 43.94 91.19 45.2" style="fill: #f4a28c;"/>
          <path d="m90.46,41.26c-.95-.89-.53-2.26-.05-3.05.05-.11.11-.16.21-.21.26-.16.63-.05.74.21.53.84,1.89.79,2.52,1.42.26.26.53.53.74.84.53.68.63,1.58.32,2.37l-1.1,2.73c-.74,0-1.37-.58-1.53-1.31-.16-.74.16-1.53.79-1.95-.68-.16-1.37-.37-2-.68-.21-.05-.47-.16-.63-.37h0Z" style="fill: #68e1fd;"/>
          <path d="m92.25,44.89c.84.26,1.37-.95.79-1.26-.58-.32-.95.47-.95.47,0,0,.16.79.16.79Z" style="fill: #f4a28c;"/>
          <path d="m90.14,43.99l-.74-.47c-.05-.05-.11-.05-.11-.11-.11-.16-.05-.42.11-.53l.95-.58-.21,1.68h0Z" style="fill: #f4a28c;"/>
          <path d="m89.56,47.99c1.89-.68,2.47-1.95,2.47-1.95-.47.21-1,.32-1.53.21l-.95,1.74h0Z" style="fill: #ce8172; isolation: isolate; opacity: .31;"/>
        </g>
        <g>
          <path d="m98.45,48.52s.74,5.21-3.73,4.31c-4.47-.89.37-4.94.37-4.94l3.37.63h-.01Z" style="fill: #ffd200;"/>
          <path d="m98.45,48.52s.74,5.21-3.73,4.31c-4.47-.89.37-4.94.37-4.94l3.37.63h-.01Z" style="fill: #24285b;"/>
          <path d="m98.4,47.68c.37.58.37,1.31,0,1.84l-1.1,1.26c-.53.79-1.42.84-2,.79h0c-.47-.05-.84-.53-.74-1,.16-1.21,1-2.79,1-2.79.42-1.05,2.16-1.16,2.84-.11h0Z" style="fill: #f4a28c;"/>
          <polygon points="95.98 50.73 93.72 54.46 96.82 55.46 98.19 49.73 95.98 50.73" style="fill: #f4a28c;"/>
          <path d="m96.82,50.46c.68.21,1.05-.74.63-1-.47-.26-.74.37-.74.37l.11.63Z" style="fill: #f4a28c;"/>
          <path d="m95.3,49.78l-.58-.37c-.05,0-.05-.05-.11-.11-.11-.16-.05-.32.11-.37l.74-.42-.16,1.26h0Z" style="fill: #f4a28c;"/>
          <path d="m94.72,52.83c1.47-.53,1.95-1.47,1.95-1.47-.37.16-.79.26-1.21.16l-.74,1.31Z" style="fill: #ce8172; isolation: isolate; opacity: .31;"/>
          <path d="m100.4,48.41c.79,3.1,1.26,6.47-2.37,5.84s-.21-5-.21-5c0,0-.63-.16-2.37-.89-.89-.37-.95-.95-.79-1.47.21-.58.63-1.1,1.21-1.31,2.1-.89,3.84.05,4.52,2.84h.01Z" style="fill: #24285b;"/>
        </g>
        <path d="m79.89,44.15s.74,5.21-3.73,4.31.37-4.94.37-4.94l3.37.63h-.01Z" style="fill: #b5e6f5;"/>
        <path d="m79.83,43.31c.37.58.37,1.31,0,1.84l-1.1,1.26c-.53.79-1.42.84-2,.79h0c-.47-.05-.84-.53-.74-1,.16-1.21,1-2.79,1-2.79.42-1.05,2.16-1.16,2.84-.11h0Z" style="fill: #f4a28c;"/>
        <polygon points="77.36 46.36 75.15 50.1 78.26 51.09 79.62 45.36 77.36 46.36" style="fill: #f4a28c;"/>
        <path d="m78.2,46.1c.68.21,1.05-.74.63-1-.47-.26-.74.37-.74.37l.11.63Z" style="fill: #f4a28c;"/>
        <path d="m76.1,48.46c1.47-.53,1.95-1.47,1.95-1.47-.37.16-.79.21-1.21.16l-.74,1.31Z" style="fill: #ce8172; isolation: isolate; opacity: .31;"/>
        <path d="m81.83,44.1c.79,3.1,1.26,6.47-2.37,5.84s-.21-5-.21-5c0,0-.63-.16-2.37-.89-.89-.37-.95-.95-.79-1.47.21-.58.63-1.1,1.21-1.31,2.1-.89,3.79,0,4.52,2.84h.01Z" style="fill: #b5e6f5;"/>
        <g>
          <path d="m91.83,50.15c.53.74.47,1.68,0,2.37l-1.42,1.58c-.58.79-1.58,1.21-2.58,1h0c-.63-.11-1.05-.68-1-1.31.26-1.26.68-2.47,1.31-3.58.58-1.26,2.79-1.42,3.68-.05h.01Z" style="fill: #f4a28c;"/>
          <polygon points="88.67 54.04 85.78 58.88 89.77 60.14 91.51 52.78 88.67 54.04" style="fill: #f4a28c;"/>
          <path d="m87.93,50.1c-.84-.84-.21-2.79,1.95-2.21.26.05,1.68.53,2.21,1.42.53.68.63,1.58.32,2.37l-1.1,2.73c-.74,0-1.37-.58-1.53-1.31-.16-.74.16-1.53.79-1.95-.68-.16-1.37-.37-2-.68-.21-.05-.42-.21-.63-.37h-.01Z" style="fill: #b5e5f5;"/>
          <path d="m89.77,53.72c.84.26,1.37-.95.79-1.26-.58-.32-.95.47-.95.47,0,0,.16.79.16.79Z" style="fill: #f4a28c;"/>
          <path d="m87.67,53.3l-.74-.47c-.05-.05-.11-.05-.11-.11-.11-.16-.05-.42.11-.53l.95-.58-.21,1.68h0Z" style="fill: #f4a28c;"/>
          <path d="m87.04,56.83c1.89-.68,2.47-1.95,2.47-1.95-.47.21-1,.32-1.53.21l-.95,1.74h0Z" style="fill: #ce8172; isolation: isolate; opacity: .31;"/>
        </g>
        <g>
          <path d="m82.94,50.46s.74,5.21-3.73,4.31.37-4.94.37-4.94l3.37.63h-.01Z" style="fill: #ffd200;"/>
          <path d="m82.94,50.46s.74,5.21-3.73,4.31.37-4.94.37-4.94l3.37.63h-.01Z" style="fill: #d4d4d4;"/>
          <path d="m82.94,49.62c.37.58.37,1.31,0,1.84l-1.1,1.26c-.53.79-1.42.84-2,.79h0c-.47-.05-.84-.53-.74-1,.16-1.21,1-2.79,1-2.79.42-1.05,2.16-1.16,2.84-.11h0Z" style="fill: #f4a28c;"/>
          <polygon points="80.47 52.67 78.26 56.41 81.36 57.41 82.73 51.67 80.47 52.67" style="fill: #f4a28c;"/>
          <path d="m81.31,52.41c.68.21,1.05-.74.63-1-.47-.26-.74.37-.74.37l.11.63Z" style="fill: #f4a28c;"/>
          <path d="m79.41,51.99l-.58-.37c-.05,0-.05-.05-.11-.11-.11-.16-.05-.32.11-.37l.74-.42-.16,1.26h0Z" style="fill: #f4a28c;"/>
          <path d="m76.52,45.52l-.58-.37c-.05,0-.05-.05-.11-.11-.11-.16-.05-.32.11-.37l.74-.42-.16,1.26h0Z" style="fill: #f4a28c;"/>
          <path d="m79.2,54.78c1.47-.53,1.95-1.47,1.95-1.47-.37.16-.79.21-1.21.16l-.74,1.31Z" style="fill: #ce8172; isolation: isolate; opacity: .31;"/>
          <path d="m84.94,50.36c.79,3.1,1.26,6.47-2.37,5.84s-.21-5-.21-5c0,0-.63-.16-2.37-.89-.89-.37-.95-.95-.79-1.47.21-.58.63-1.1,1.21-1.31,2.1-.89,3.79.05,4.52,2.84h.01Z" style="fill: #d4d4d4;"/>
        </g>
      </g>
      <path d="m72.21,59.98s-2.16,1-2.79.58c-.63-.47,2.37-1.89,2.37-1.89,0,0,.42,1.31.42,1.31Z" style="fill: #f4a28c;"/>
      <path d="m82.15,65.93s-2.16,1-2.79.58,2.37-1.89,2.37-1.89l.42,1.31Z" style="fill: #f4a28c;"/>
      <path d="m75.36,57.35s-.68-2.26-.16-2.84,1.53,2.58,1.53,2.58c0,0-1.37.26-1.37.26Z" style="fill: #f4a28c;"/>
      <path d="m88.88,67.45c-.26.11-2.1.95-2.68.53-.03-.03-.05-.07-.05-.11-.16-.53,2.47-1.74,2.47-1.74.11.42.21.89.26,1.31h0Z" style="fill: #f4a28c;"/>
      <path d="m88.62,66.14c.74-.26,1.53-.63,2.31-1.16,4.37-2.79,5.52-7.78,5.89-9.57.21,0,1.05-.05,1.84.53.89.63,1.1,1.58,1.16,1.79.05.21.05.58.05,1-.05,1.37-.53,2.42-1,3.31-.32.68-.89,1.58-1.68,2.52-2.73.95-5.52,1.95-8.26,2.89-.11-.42-.21-.89-.32-1.31h.01Z" style="fill: #fff; isolation: isolate; opacity: .46;"/>
      <path d="m75.36,57.35c.05.95.21,2.31.79,3.89.53,1.47.89,2.37,1.74,2.84,1.53.84,3.94-.11,5.21-1.63,1.47-1.79,1.63-4.63.58-5.47-.16-.16-.63-.47-1.21-.37-.68.11-1.05.63-1.16.74-.11.37-.16.74-.26,1.1.21.11.53.37.74.79.37.84-.16,1.74-.37,2.05-.05.11-.68,1.1-1.37,1.21-1.05.11-2.37-2.1-3.31-5.42-.42.11-.89.16-1.37.26h0Z" style="fill: #fff; isolation: isolate; opacity: .46;"/>
    </g>
  </g>
</svg>