<?xml version="1.0" encoding="utf-8"?>
<!-- Generator: Adobe Illustrator 27.1.1, SVG Export Plug-In . SVG Version: 6.00 Build 0)  -->
<svg version="1.1" id="Layer_1" xmlns="http://www.w3.org/2000/svg" xmlns:xlink="http://www.w3.org/1999/xlink" x="0px" y="0px"
	 viewBox="0 0 21.2 28.8" style="enable-background:new 0 0 21.2 28.8;" xml:space="preserve">
<style type="text/css">
	.st0{fill:#5AC1E6;}
</style>
<g>
	<path class="st0" d="M2.5,19.1c5.5,0,10.7,0,16,0c0.2,0,1.3,0.1,2-0.1c0.4-0.1,0.5-0.2,0.6-0.4c0.3-0.6,0-1.5-0.3-2
		c-0.9-1.6-2-3.2-3.1-4.7c-0.6-0.8-0.5-1.4,0-2.2c1.1-1.5,2.1-3.1,3.1-4.7c0.3-0.6,0.5-1.5,0.2-2c-0.2-0.4-0.6-0.8-1.7-0.7
		c-4.4-0.1-8.9,0-13.4,0c-1.1,0-2.3,0-3.4,0C2.5,1,2.8,0.1,1.3,0C0.3,0,0.1,0.5,0,1.1c0,0.3,0,8.7,0,12.5c0,4.6,0,9.2,0,13.8
		c0,0.5,0.1,1,0.5,1.3c0.4,0.2,1.3,0.3,1.6-0.1c0.4-0.4,0.3-1,0.3-1.5C2.5,24.4,2.5,21.9,2.5,19.1z"/>
</g>
</svg>
